<svg xmlns="http://www.w3.org/2000/svg" width="460" height="220" viewBox="0 0 129.82222 62.088888"><g fill="#692323" word-spacing="0"><g style="line-height:125%" font-weight="700" font-size="14.585" font-family="Montserrat" letter-spacing="0"><path d="M67.733 13.258h2.67v10.224h-2.67V13.258zM72.377 13.258h2.902l2.96 5.98 2.947-5.98h2.902v10.224h-2.363l-.014-6.476-2.61 5.455h-1.722l-2.625-5.455v6.476h-2.377V13.258zM90.57 13.258q1.955 0 3.034.948 1.08.933 1.08 2.64 0 1.808-1.08 2.815-1.08.991-3.034.991h-1.823v2.83h-2.669V13.258h4.492zm-.13 5.265q.816 0 1.253-.408.453-.409.453-1.182 0-.744-.453-1.137-.437-.409-1.254-.409h-1.692v3.136h1.692zM102.734 23.482l-.7-1.809h-4.42l-.714 1.809h-2.742l4.39-10.224h2.742l4.288 10.224h-2.844zm-4.318-3.85h2.83l-1.4-3.647-1.43 3.646zM113.612 16.729q-.495-.627-1.18-.992-.686-.379-1.357-.379-.773 0-1.415.394-.627.379-.992 1.065-.364.67-.364 1.502 0 .831.364 1.517.365.67.992 1.064.642.38 1.415.38.627 0 1.312-.321.686-.321 1.225-.875l1.561 1.677q-.831.875-1.984 1.4-1.137.51-2.26.51-1.517 0-2.742-.7t-1.925-1.91q-.7-1.21-.7-2.713 0-1.488.714-2.684.715-1.196 1.955-1.881 1.254-.686 2.8-.686 1.138 0 2.246.482 1.108.466 1.881 1.283l-1.546 1.867zM115.412 13.258h8.766v2.202h-3.063v8.022h-2.67V15.46h-3.033v-2.202z" style="-inkscape-font-specification:'Montserrat Bold'"/></g><g style="line-height:100%" font-weight="500" font-size="31.025" font-family="OneDirection" letter-spacing=".776"><path d="M72.216 29.033q.683-.124.9-.155.217-.03.31 0 .093.031.124.124.063.062.497.155.434.094 1.21.156 1.582.093 2.203.496.59.341 1.334 1.396.744 1.055.868 1.706.187.807-.155 1.707-.341.9-1.055 1.551l-.868.807.527.341q1.644 1.117 1.707 2.327.062 1.737-.342 2.606-.372.838-1.985 2.389-1.303 1.303-2.048 1.768-.745.435-2.45.931-1.149.341-2.948.62-1.769.28-1.924.125-.062-.062.217-.342.28-.279.652-.527.403-.28.558-.28.217 0 .466-.154.279-.156.434-.31.186-.187.124-.28-.093-.093-1.303.155-1.21.217-1.427.031-.217-.248 0-2.327.248-2.078.776-4.591 1.675-8.098 2.14-9.246.373-.9.993-1.086.124-.03.465-.093zm3.816 3.754q-.837-.465-1.55.031-.311.249-.404 1.18-.093.899.186.992.248.093 1.241-.558 1.582-1.055.527-1.645zm-.744 8.284q.403-.683-.714-.869-1.055-.186-1.396.124-.248.31-.31 1.334-.062.993.155 1.055.186.062 1.086-.59.9-.65 1.179-1.054zM81.5 28.878q.247-.31 1.21-.155.96.155 1.768.652.589.31.837.682.248.341.59 1.303.651 1.769.837 2.14.187.342.373.28.155-.062 1.334-1.923 1.179-1.893 1.458-2.048.155-.093.838-.124.682-.031 1.489.124.837.155 1.148.496.31.404.31.869 0 .434-.217.776-.186.34-.404.744-.186.404-.186.652 0 .155-.186.496-.155.31-.651 1.241-.497.93-1.024 1.986l-1.272 2.606q-.404.775-.404.993 0 .434-1.613 3.785-.744 1.55-2.575 3.102-1.83 1.551-2.73 1.427-.28-.03-.403-.217-.093-.186-.125-.775-.03-.404 0-.714.032-.341.094-.527.062-.187.217-.59.155-.434.248-.776.403-1.365 1.83-4.653.249-.59.249-1.024 0-.465-.156-.683-.124-.248-.372-.651-.248-.404-.372-.807-.124-.341-.528-1.024-.403-.682-.62-1.24 0-.032-.031-.094-1.924-5.088-.962-6.329zM101.35 29.437q2.016-.342 3.164-.497 1.18-.186 1.862-.217.682-.03.9.093.248.093.279.341.124.528.59.745.496.186 1.768.186 1.396 0 1.706.248.341.218.217 1.148-.093.776-.558 1.18-.466.372-1.8.899-1.365.527-4.684 1.148-1.366.248-1.676.651-.31.404-.31 1.986 0 1.52-.248 5.305-.248 3.785-.248 4.096 0 .496-.125.62-.124.124-.496.248-.341.093-.683.435-.279.248-.434.279-.124.03-.217-.031-.093-.062-.403-.28-.31-.217-.714-.403-.496-.186-.713-.713-.218-.528-.218-1.552 0-1.023.062-2.078.062-1.086.187-3.04.124-1.955.155-3.662.03-1.55-.031-1.892-.062-.372-.404-.652-.341-.279-.961-.403-.59-.155-1.055-.217-.435-.093-.807-.465-.341-.373-.341-1.086 0-.807.403-1.117.434-.342 1.8-.59l4.033-.713zM121.099 29.22q.217-.218 1.396-.156 1.21.031 1.396.249.155.186.217.837.093.652.062 1.334-.031.217-.186.373-.124.155-.28.248-.154.062-.527.217-.372.124-.62.248-.62.31-3.04.776-.497.093-.776.372-.28.28-.124.559.155.248 1.458.124 1.148-.124 1.458.093.31.217.31 1.117 0 .558-.124.837-.124.248-.527.59-.652.527-.993.527-.341 0-1.024.435l-.683.403.063 1.613q.03 1.365.279 1.644.279.249.962-.434.496-.496 1.55-1.21 1.056-.713 1.49-.869.31-.093.372 0 .093.062.093.373 0 .527.31.775.218.156.249.59.062.434.03 1.551l-.061 1.862-1.024.93q-1.21 1.086-2.079 1.459-.837.34-2.171.31-.931-.031-1.49-.124-.527-.124-1.21-.466-1.148-.59-1.489-1.117-.403-.59-.744-1.706-.31-1.117-.342-1.986-.03-.837.373-3.63.403-2.792.775-4.374.28-1.241.528-1.8.279-.558 1.023-1.458.59-.682.993-.806.404-.155.962.155.341.186 1.582 0 1.272-.186 1.583-.466z" style="line-height:100%;-inkscape-font-specification:'OneDirection Medium'"/></g></g><path d="M48.635 6.544C36.858 8.381 26.082 13.94 15.57 19.281c-4.93 2.837-10.403 7.563-9.892 13.831.46 3.849 2.577 7.542 5.457 10.055.804.59 2.359.27 2.866.198-2.436 3.578.118 8.301 3.244 10.538 1.814 1.56 4.505 2.383 6.542.749 3.965-1.736 8.468-2.592 12.107-5.122.387 2.162 3.022 4.398 4.985 2.426 7.129-4.787 13.619-10.717 17.948-18.211 1.307-2.328 3.698-4.756 3.193-7.586-1.128-2.532-4.76-2.336-6.735-.96 1.026-3.294 4.374-6.53 2.742-10.168-1.686-2.018-4.689-1.792-6.907-1.267 1.554-2.454 1.255-7.197-2.485-7.22z" fill="#fff"/><path d="M48.678 8.242a2.83 2.83 0 0 0-.908.17c-2.944.383-5.838 1.186-8.612 2.271-5.2 1.63-10.211 3.793-15.078 6.238-5.697 2.792-12.17 5.296-15.536 11.043-2.578 4.031.045 8.358 3.123 11.526.758 1.895 3.19.713 4.251-1.004 1.696-2.7 1.634 1.732 2.68 3.08 1.771-.682 1.232-5.151 3.654-3.635.925 4.175 3.343-1.594 5.236-1.266.038 2.11.002 5.668-2.482 6.273-2.264-3.413-2.167 2.188-5.2 2.292-2.286-1.358-5.723-1.974-4.978 1.602.063 3.284 2.842 5.592 5.559 6.95.446.226.977.214 1.44.051 4.209-2.47 9.325-3.007 13.372-5.83 2.745-2.824 1.68 2.905 4.004 3.049 3.4-2.4 6.728-4.908 9.878-7.628 4.375-4.397 7.951-9.577 10.937-15.005 2.073-3.283-3.12-2.904-4.546-1.276-3.355 1.743-1.835-3.363-.788-4.738.781-2.038 2.618-4.052 1.964-6.345-1.693-1.718-4.366-.748-6.43-.297-2.422.98-1.966-1.401-.75-2.484 1.086-1.507 1.367-5.037-.79-5.037z" fill="#ef5350"/><g fill="#692323"><path d="M48.678 8.242a2.83 2.83 0 0 0-.908.17c-2.944.383-5.838 1.186-8.612 2.271-5.2 1.63-10.211 3.793-15.078 6.238-5.697 2.792-12.17 5.296-15.536 11.043-.647 1.011-.966 2.041-1.033 3.067a6.561 6.561 0 0 0-.01.198c.01.493.268 1.708 2.683 1.194 3-.639 2.762-3.102 5.86-2.784 3.1.317 1.176-3.866 5.802-3.417 4.625.448 5.475-.51 6.767-2.076 1.293-1.566 3.008-.707 5.63-1.223 2.622-.516 2.09-5.057 5.8-4.568 3.71.488 7.516-1.637 7.516-1.637s.514-.735.49-2.06c.04-.143 1.274-1.758 1.274-1.758.463-1.212.993-1.208.958-2.806-.087-1.024-.559-1.852-1.603-1.852z"/><path d="M32.04 18.61c-3.745.29-7.193 3.752-6.752 7.6 1.307 3.375 6.474 2.817 8.46.35 1.975-2.203 1.733-6.272-.894-7.812a2.27 2.27 0 0 0-.815-.138z"/><path d="M28.028 32.985c9.876-10.03 18.388 5.164-.33 11.013l2.188-5.95-2.816-4.549z" fill-rule="evenodd"/><path d="M48.678 8.242a2.83 2.83 0 0 0-.908.17c-2.944.383-5.838 1.186-8.612 2.271-5.2 1.63-10.211 3.793-15.078 6.238-5.697 2.792-11.234 4.107-15.536 11.043-4.301 6.935 3.014 17.283 6.11 12.657 1.696-2.7 2.898-.403 3.945.945 1.77-.682 1.23-5.151 3.653-3.635.925 4.175 3.343-1.594 5.236-1.266.038 2.11.005 5.668-2.482 6.273-2.264-3.414-2.018 1.12-4.157 1.681-2.219-.873-4.96-1.377-4.96-1.377s-1.876 1.504-1.677 3.192c.406 3.445 3.458 5.99 6.175 7.348.446.226.977.214 1.44.051 4.209-2.47 9.325-3.007 13.372-5.83 3.223-1.588 1.68 2.905 4.004 3.049 3.4-2.4 6.728-4.908 9.878-7.628 4.375-4.397 7.951-9.577 10.937-15.006 2.073-3.282-3.12-2.903-4.546-1.275-3.356 1.743-1.835-3.363-.788-4.738.781-2.038 2.618-4.053 1.964-6.345-1.693-1.718-4.366-.748-6.43-.297-2.422.98-1.966-1.401-.75-2.484 1.086-1.507 1.367-5.037-.79-5.037zm-3.303 3.836c2.471.623-.354 3.296-1.08 4.502-1.78 1.68.037 4.03 2.157 3.016 2.15-.324 4.46-.927 6.546.007-.9 3.487-3.707 6.496-3.375 10.26.88 2.164 3.704 1.273 5.45.89-4.768 7.22-8.699 10.926-14.329 15.664-.503-1.104.085-3.52-2.099-3.144-2.07.316-3.373 2.187-5.385 2.77-4.099 1.855-7.863 2.982-12.034 4.645-2.353 1.242-3.842-3.91-3.842-3.91s2.175.53 2.822.787c1.698.667 2.434-1.277 3.337-2.752 1.134.77 2.935 2.142 3.825.01.836-1.51 1.955-4.229 2.518-6.775.296-1.954-.361-4.753-2.424-5.28-1.378.315-2.931 4.387-3.898 1.825-1.106-2.743-3.362 1.583-4.362 2.778-1.312 1.017-1.802-3.609-3.407-1.812-.693.837-2.431 2.693-2.431 2.693l-2.268-2.742c-2.206-2.668-.088-7.27 2.496-9.362 9.32-5.93 16.925-10.335 31.783-14.07z"/><path d="M39.666 23.397c-1.232.095-2.367 1.234-2.222 2.5.43 1.11 2.13.927 2.784.115.65-.724.57-2.063-.294-2.57a.75.75 0 0 0-.268-.045zM45.51 26.824c-1.233.096-2.367 1.235-2.222 2.5.43 1.111 2.13.928 2.784.116.65-.725.57-2.064-.294-2.57a.75.75 0 0 0-.269-.046zM41.03 28.005c-1.232.095-2.366 1.234-2.22 2.5.43 1.11 2.13.927 2.783.115.65-.725.57-2.064-.295-2.57a.75.75 0 0 0-.268-.045z"/></g><path d="M30.942 22.133c.275.024.535.374.661.597.213.409.585.856.416 1.345-.375.626-1.045.997-1.684 1.306-.328.137-.654.282-.998.372-.335.116-.775.108-.972-.238-.225-.452.024-.964.248-1.37.363-.569.735-1.168 1.293-1.565.259-.114.43-.288.76-.344a.357.357 0 0 1 .276-.103z" fill="#e9e9f1"/><path d="M33.985 32.134c-1.646-.03-3.626 1.33-4.452 2.68.405 1.023.504 2.238.353 3.234a26.46 26.46 0 0 1-.957 3.23c3.576-.327 8.422-7.182 6.21-8.871-.25-.21-.588-.28-.907-.257a2.737 2.737 0 0 0-.247-.016z" fill="#ffa726" fill-rule="evenodd"/></svg>