<svg xmlns="http://www.w3.org/2000/svg" xmlns:xlink="http://www.w3.org/1999/xlink" width="165" height="25.385" viewBox="0 0 165 25.385">
    <defs>
        <style>
            .cls-1{fill:url(#linear-gradient)}.cls-2{fill:url(#linear-gradient-2)}.cls-3{fill:url(#linear-gradient-3)}.cls-4{fill:url(#linear-gradient-4)}.cls-5{fill:#666}
        </style>
        <linearGradient id="linear-gradient" x1=".031" x2=".631" y1="1.308" y2=".145" gradientUnits="objectBoundingBox">
            <stop offset="0" stop-color="#00546c"/>
            <stop offset=".356" stop-color="#006875"/>
            <stop offset="1" stop-color="#009485"/>
        </linearGradient>
        <linearGradient id="linear-gradient-2" x1=".009" x2=".718" y1="16.645" y2="-6.618" xlink:href="#linear-gradient"/>
        <linearGradient id="linear-gradient-3" x1=".083" x2=".792" y1="14.133" y2="-9.13" xlink:href="#linear-gradient"/>
        <linearGradient id="linear-gradient-4" x1=".168" x2=".878" y1="11.375" y2="-11.888" xlink:href="#linear-gradient"/>
    </defs>
    <g id="Group_663" data-name="Group 663" transform="translate(-8727 -5726)">
        <g id="Group_646" data-name="Group 646" transform="translate(8727 5726)">
            <path id="XMLID_323_" d="M196.085 53.662a12.716 12.716 0 0 0-17.96 0 9.471 9.471 0 0 0-.762.888h2.665a10.8 10.8 0 1 1-.254 15.929H177.3c.317.381.571.762.888 1.142a12.677 12.677 0 1 0 17.9-17.96" class="cls-1" transform="translate(-166.321 -49.95)"/>
            <path id="XMLID_322_" d="M0 0h19.038v1.269H0z" class="cls-2" transform="translate(5.457 9.297)"/>
            <path id="XMLID_321_" d="M0 0h19.038v1.269H0z" class="cls-3" transform="translate(3.173 12.089)"/>
            <path id="XMLID_320_" d="M0 0h19.038v1.269H0z" class="cls-4" transform="translate(0 14.882)"/>
            <path id="XMLID_290_" d="M229.694 63.631c0-1.523-1.079-2.348-2.729-2.348h-2.6v4.7h2.665a2.362 2.362 0 0 0 2.665-2.348zm-2.794 5.394h-2.538v4.569H221V58.3h6.283c3.681 0 5.838 2.158 5.838 5.267v.063c-.063 3.555-2.792 5.395-6.221 5.395z" class="cls-5" transform="translate(-182.288 -53.001)"/>
            <path id="XMLID_289_" d="M250.825 75.64v-1.65a4.278 4.278 0 0 1-3.427 1.9c-2.538 0-4-1.65-4-4.379V63.9h3.3v6.537c0 1.587.762 2.412 2.031 2.412s2.094-.825 2.094-2.412V63.9h3.3v11.74z" class="cls-5" transform="translate(-190.473 -55.047)"/>
            <path id="XMLID_288_" d="M270.754 67.052c-2.221 0-3.554 1.333-3.554 4.125v4.315h-3.3v-11.74h3.3V66.1a3.651 3.651 0 0 1 3.744-2.6v3.49h-.19z" class="cls-5" transform="translate(-197.963 -54.899)"/>
            <path id="XMLID_283_" d="M292.088 75.767h-2.983l-2.221-7.235-2.284 7.235h-2.983L278 63.9h3.363l1.84 7.108 2.221-7.108h2.856l2.285 7.171 1.9-7.171h3.3z" class="cls-5" transform="translate(-203.115 -55.047)"/>
            <path id="XMLID_280_" d="M315.015 70.871a5.35 5.35 0 0 0-2.094-.444c-1.4 0-2.285.571-2.285 1.587v.063c0 .888.762 1.4 1.84 1.4 1.587 0 2.6-.825 2.6-2.031v-.571zm-.063 4.7V74.3a4.52 4.52 0 0 1-3.554 1.46c-2.221 0-4-1.269-4-3.617 0-2.538 1.967-3.744 4.7-3.744a7.42 7.42 0 0 1 2.856.508v-.19c0-1.4-.825-2.158-2.538-2.158a8.909 8.909 0 0 0-3.237.635l-.825-2.538a10.2 10.2 0 0 1 4.569-.952c3.617 0 5.2 1.9 5.2 5.077v6.79h-3.173z" class="cls-5" transform="translate(-213.858 -54.974)"/>
            <path id="XMLID_270_" d="M337.075 67.254a2.951 2.951 0 0 0-2.856-3.237 2.988 2.988 0 0 0-2.856 3.237v.063a2.988 2.988 0 0 0 2.856 3.237c1.587 0 2.856-1.269 2.856-3.3zm-.063 5.9v-1.712a4.349 4.349 0 0 1-3.681 1.9c-2.729 0-5.331-2.158-5.331-6.092v-.06c0-3.935 2.538-6.092 5.331-6.092a4.593 4.593 0 0 1 3.681 1.777V57.1h3.3v15.992h-3.3z" class="cls-5" transform="translate(-221.385 -52.563)"/>
            <path id="XMLID_269_" d="M359.625 73.192v-6.536c0-1.587-.762-2.412-2.031-2.412s-2.094.825-2.094 2.412v6.537h-3.3V57.2h3.3v5.9a4.121 4.121 0 0 1 3.427-1.9c2.538 0 4 1.65 4 4.379v7.615z" class="cls-5" transform="translate(-230.227 -52.599)"/>
            <path id="XMLID_256_" d="M373.863 73.192v-11.74h3.3v11.74zm-.063-13.01V57.2h3.49v2.983z" class="cls-5" transform="translate(-238.119 -52.599)"/>
            <path id="XMLID_254_" d="M391.652 73.192l-3.11-4.76-1.142 1.206v3.554h-3.3V57.2h3.3v8.567l3.935-4.315h3.935l-4.442 4.633 4.633 7.108z" class="cls-5" transform="translate(-241.883 -52.599)"/>
            <path id="XMLID_226_" d="M410.715 70.871a5.35 5.35 0 0 0-2.094-.444c-1.4 0-2.285.571-2.285 1.587v.063c0 .888.762 1.4 1.84 1.4 1.523 0 2.6-.825 2.6-2.031v-.571zm-.063 4.7V74.3a4.52 4.52 0 0 1-3.554 1.46c-2.221 0-4-1.269-4-3.617 0-2.538 1.967-3.744 4.7-3.744a7.42 7.42 0 0 1 2.856.508v-.19c0-1.4-.825-2.158-2.538-2.158a8.909 8.909 0 0 0-3.237.635l-.825-2.538a10.2 10.2 0 0 1 4.569-.952c3.617 0 5.2 1.9 5.2 5.077v6.79h-3.173z" class="cls-5" transform="translate(-248.825 -54.974)"/>
        </g>
    </g>
</svg>
