<svg id="logo" xmlns="http://www.w3.org/2000/svg" viewBox="0 0 1035.25 328.22"><defs><style>.cls-1{fill:#ffb643;}.cls-2{fill:#4535aa;}.cls-3{fill:#fff;}</style></defs><title>st new logo</title><circle class="cls-1" cx="164.11" cy="164.11" r="164.11"/><ellipse class="cls-2" cx="163.49" cy="164.73" rx="137.58" ry="138.81"/><path class="cls-2" d="M414.87,519.43a9,9,0,0,1-1.7-5.84q.21-3.08,3.61-5.41a7.48,7.48,0,0,1,5-1.27,7.76,7.76,0,0,1,5.2,2.76,47.29,47.29,0,0,0,13.58,11.14q7.63,4.14,18.68,4.14a42.5,42.5,0,0,0,10.18-1.7,18.8,18.8,0,0,0,8.6-5.2q3.5-3.7,3.5-9.87,0-5.94-3.61-9.44a27.42,27.42,0,0,0-9.34-5.73A103.21,103.21,0,0,0,456,489.08q-7-1.9-13.79-4.35A53.33,53.33,0,0,1,430,478.57a28.85,28.85,0,0,1-8.7-9.33,26.71,26.71,0,0,1-3.29-13.69,27,27,0,0,1,5.2-16.56,33.78,33.78,0,0,1,14-10.82,47.68,47.68,0,0,1,19.21-3.82,59.54,59.54,0,0,1,12.41,1.38,48,48,0,0,1,12.63,4.67,35.42,35.42,0,0,1,10.82,9,8.52,8.52,0,0,1,2.13,5.3,6.82,6.82,0,0,1-2.76,5.73,7.6,7.6,0,0,1-5.2,1.49,7.31,7.31,0,0,1-4.78-2.12,29.38,29.38,0,0,0-11.14-8.17,37.06,37.06,0,0,0-14.75-2.87,34.13,34.13,0,0,0-10,1.49,18.36,18.36,0,0,0-8.17,5q-3.29,3.51-3.29,9.66a13.39,13.39,0,0,0,3.82,9.34,26.19,26.19,0,0,0,9.77,5.84q6.15,2.22,13.58,4.35,6.79,1.69,13.05,3.92A46.68,46.68,0,0,1,486,484.2a26.12,26.12,0,0,1,8.06,9.23q3,5.63,3,14.11a26.72,26.72,0,0,1-5.52,16.88A34.64,34.64,0,0,1,477,535.24,50.65,50.65,0,0,1,457.53,539a62.56,62.56,0,0,1-23-4.46A46.1,46.1,0,0,1,414.87,519.43Z" transform="translate(-21 -370.08)"/><path class="cls-2" d="M517.38,427.75h49.87a7.45,7.45,0,0,1,5.63,2.33,7.75,7.75,0,0,1,2.22,5.52,7.61,7.61,0,0,1-7.85,7.85H517.38a7.55,7.55,0,0,1-5.52-2.33,7.79,7.79,0,0,1-2.34-5.73,7.21,7.21,0,0,1,2.34-5.42A7.72,7.72,0,0,1,517.38,427.75Zm22.28-28.87a7.9,7.9,0,0,1,5.94,2.44,8.42,8.42,0,0,1,2.34,6.05V509.88q0,5.08,1.48,7.64a7.8,7.8,0,0,0,3.93,3.5,13,13,0,0,0,4.78,1,8.62,8.62,0,0,0,3.71-.75,8.77,8.77,0,0,1,3.71-.74,5.22,5.22,0,0,1,3.93,2,7.49,7.49,0,0,1,1.8,5.2q0,3.81-4.45,6.47a19.13,19.13,0,0,1-10,2.65q-3,0-7.32-.42a22.14,22.14,0,0,1-8.6-2.76,18.18,18.18,0,0,1-7.11-7.75Q531,520.48,531,510.73V407.37a8.05,8.05,0,0,1,2.55-6.05A8.57,8.57,0,0,1,539.66,398.88Z" transform="translate(-21 -370.08)"/><path class="cls-2" d="M680.79,427.11a8.13,8.13,0,0,1,6.16,2.44,8.43,8.43,0,0,1,2.33,6.05v57.94q0,21.43-12,33.21t-33.43,11.78q-21.23,0-33.21-11.78t-12-33.21V435.6a8.34,8.34,0,0,1,8.49-8.49,8.09,8.09,0,0,1,6.15,2.44,8.4,8.4,0,0,1,2.34,6.05v57.94q0,14.43,7.43,21.86t20.79,7.43q13.8,0,21.12-7.43t7.32-21.86V435.6a8.34,8.34,0,0,1,8.49-8.49Z" transform="translate(-21 -370.08)"/><path class="cls-2" d="M810,379.78a8.16,8.16,0,0,1,6.16,2.44,8.45,8.45,0,0,1,2.33,6V528.13a8.61,8.61,0,0,1-2.44,6.16,8.48,8.48,0,0,1-12.1,0,8.57,8.57,0,0,1-2.44-6.16V508l4-1.49a22.39,22.39,0,0,1-3.07,10.72,38.87,38.87,0,0,1-8.7,10.51,49.76,49.76,0,0,1-13.06,8.06A40.55,40.55,0,0,1,764.62,539a46.58,46.58,0,0,1-25.89-7.43,52.37,52.37,0,0,1-18.15-20.38q-6.68-12.94-6.68-29.5,0-16.75,6.68-29.71a51.79,51.79,0,0,1,18-20.27,47.22,47.22,0,0,1,55.92,3.72,39.25,39.25,0,0,1,9.23,11.24,26,26,0,0,1,3.29,12.31l-5.52-1.27v-69.4a8.34,8.34,0,0,1,8.49-8.49ZM766.32,523.25a33.08,33.08,0,0,0,18.89-5.41A37.45,37.45,0,0,0,797.94,503a51.28,51.28,0,0,0,0-42.76,37.15,37.15,0,0,0-12.84-14.75,33.21,33.21,0,0,0-18.78-5.42,32.87,32.87,0,0,0-18.57,5.42,37.15,37.15,0,0,0-12.84,14.75,50.79,50.79,0,0,0,0,42.55,37.85,37.85,0,0,0,12.84,15A32.41,32.41,0,0,0,766.32,523.25Z" transform="translate(-21 -370.08)"/><path class="cls-2" d="M932.07,425.41a8.34,8.34,0,0,1,8.49,8.49v92.53q0,17.84-7,29.61a43.91,43.91,0,0,1-18.78,17.51,60.16,60.16,0,0,1-26.64,5.73,73.35,73.35,0,0,1-15.92-1.7,45.82,45.82,0,0,1-12.52-4.46,12,12,0,0,1-5.62-4.77,7.23,7.23,0,0,1-.53-6.05A9.52,9.52,0,0,1,857.9,557a6.53,6.53,0,0,1,6.05,0q3.39,1.49,9.87,4.14a37.92,37.92,0,0,0,14.53,2.66q11,0,18.89-4.25a29,29,0,0,0,12.1-12.41q4.24-8.18,4.24-20.27V511.79l2.55,5.3A37.44,37.44,0,0,1,917,528.56a43.48,43.48,0,0,1-13.15,7.64A46.87,46.87,0,0,1,887.5,539q-12.09,0-20.48-5.2a33.24,33.24,0,0,1-12.73-14.44A49.49,49.49,0,0,1,849.94,498V433.9a8.34,8.34,0,0,1,8.49-8.49,8.13,8.13,0,0,1,6.15,2.44,8.42,8.42,0,0,1,2.34,6v60.27q0,14.44,6.37,21.76T893,523.25a31.2,31.2,0,0,0,15.39-3.82,29.7,29.7,0,0,0,11-10.51,27.52,27.52,0,0,0,4.13-14.75V433.9a8.42,8.42,0,0,1,2.34-6A8.14,8.14,0,0,1,932.07,425.41Z" transform="translate(-21 -370.08)"/><path class="cls-2" d="M533.58,595.66h32.18a4.79,4.79,0,0,1,3.63,1.51,5,5,0,0,1,1.44,3.56,4.92,4.92,0,0,1-5.07,5.07H533.58a4.84,4.84,0,0,1-3.56-1.51,5,5,0,0,1-1.51-3.7A4.63,4.63,0,0,1,530,597.1,5,5,0,0,1,533.58,595.66ZM548,577a5.07,5.07,0,0,1,3.83,1.58,5.4,5.4,0,0,1,1.51,3.9v66.16a10,10,0,0,0,1,4.93,5.06,5.06,0,0,0,2.53,2.26,8.44,8.44,0,0,0,3.08.61,5.59,5.59,0,0,0,2.4-.48,5.62,5.62,0,0,1,2.4-.48,3.39,3.39,0,0,1,2.53,1.31,4.8,4.8,0,0,1,1.17,3.35c0,1.64-1,3-2.88,4.18a12.38,12.38,0,0,1-6.44,1.71c-1.28,0-2.85-.09-4.72-.27a14.53,14.53,0,0,1-5.55-1.78,11.77,11.77,0,0,1-4.59-5c-1.23-2.33-1.85-5.59-1.85-9.8v-66.7a5.18,5.18,0,0,1,1.65-3.9A5.51,5.51,0,0,1,548,577Z" transform="translate(-21 -370.08)"/><path class="cls-2" d="M651.91,630.45a38.49,38.49,0,0,1-4.65,19,34.34,34.34,0,0,1-30.82,17.94,34.43,34.43,0,0,1-18-4.79,35.28,35.28,0,0,1-12.74-13.15,40.76,40.76,0,0,1,0-38.08,35.28,35.28,0,0,1,12.74-13.15,36.52,36.52,0,0,1,36.16,0,34.81,34.81,0,0,1,12.67,13.15A38.49,38.49,0,0,1,651.91,630.45Zm-10.95,0a29.3,29.3,0,0,0-3.22-14A24.32,24.32,0,0,0,629,607a24.54,24.54,0,0,0-25,0,24.12,24.12,0,0,0-8.84,9.45,29.3,29.3,0,0,0-3.22,14,29,29,0,0,0,3.22,13.83A24.66,24.66,0,0,0,604,653.8a24.11,24.11,0,0,0,25,0,24.87,24.87,0,0,0,8.77-9.52A29,29,0,0,0,641,630.45Z" transform="translate(-21 -370.08)"/><path class="cls-2" d="M703,593.47q9.32,0,14.65,3.83a20.87,20.87,0,0,1,7.61,10.28A43.34,43.34,0,0,1,727.52,622v38.49a5.54,5.54,0,0,1-1.58,4,5.47,5.47,0,0,1-7.81,0,5.53,5.53,0,0,1-1.57-4V622.23a26.44,26.44,0,0,0-1.58-9.38,14.05,14.05,0,0,0-5.2-6.71q-3.63-2.53-9.93-2.53a22.22,22.22,0,0,0-10.55,2.53,21.2,21.2,0,0,0-7.67,6.71,16.14,16.14,0,0,0-2.87,9.38v38.22a5.54,5.54,0,0,1-1.58,4,5.47,5.47,0,0,1-7.81,0,5.53,5.53,0,0,1-1.57-4V600.73a5.57,5.57,0,0,1,9.45-3.9,5.44,5.44,0,0,1,1.51,3.9v9.72l-2.74,3a19.12,19.12,0,0,1,3.15-7.19,28.67,28.67,0,0,1,6.16-6.51,31.75,31.75,0,0,1,8.22-4.59A26.46,26.46,0,0,1,703,593.47Z" transform="translate(-21 -370.08)"/><path class="cls-2" d="M752.85,585a7.8,7.8,0,0,1-5.06-1.37,5.21,5.21,0,0,1-1.65-4.25v-1.91a5,5,0,0,1,1.78-4.25,8.2,8.2,0,0,1,5.07-1.37,7.57,7.57,0,0,1,4.93,1.37,5.2,5.2,0,0,1,1.64,4.25v1.91a5.11,5.11,0,0,1-1.71,4.25A7.88,7.88,0,0,1,752.85,585Zm5.48,75.47a5.53,5.53,0,0,1-1.57,4,5.21,5.21,0,0,1-3.91,1.64,5.14,5.14,0,0,1-4-1.64,5.69,5.69,0,0,1-1.5-4V599.63a5.48,5.48,0,1,1,11,0Z" transform="translate(-21 -370.08)"/><path class="cls-2" d="M807.09,593.47a30,30,0,0,1,11.09,2,31.66,31.66,0,0,1,8.84,5.13,27.8,27.8,0,0,1,5.89,6.58A12.37,12.37,0,0,1,835,613.6L832.29,612V600a5.38,5.38,0,0,1,5.48-5.47,5.23,5.23,0,0,1,4,1.57,5.4,5.4,0,0,1,1.51,3.9v60q0,11.24-4.73,18.63a29.47,29.47,0,0,1-12.67,11.09,41.24,41.24,0,0,1-17.66,3.7,42.85,42.85,0,0,1-9.11-1.09,53.39,53.39,0,0,1-8.84-2.67c-2.55-1.05-4.15-2.13-4.79-3.22a5.66,5.66,0,0,1-2.53-3.08,3.78,3.78,0,0,1,.47-3.22,4,4,0,0,1,3.29-1.92,13.78,13.78,0,0,1,4.93,1.23c.91.28,2.24.73,4,1.37a46.33,46.33,0,0,0,6,1.71,30.69,30.69,0,0,0,6.71.76q11.64,0,17.81-6.1t6.16-16.09V648.39l1.51.69a18.19,18.19,0,0,1-3.29,7.12,26.63,26.63,0,0,1-6.09,5.82,30.32,30.32,0,0,1-8.09,4,28.91,28.91,0,0,1-9,1.44,31.6,31.6,0,0,1-17.19-4.79,34.33,34.33,0,0,1-12-13.15,43.24,43.24,0,0,1,0-38.21,33.86,33.86,0,0,1,12-13.08A31.2,31.2,0,0,1,807.09,593.47Zm1.51,10.14A22.9,22.9,0,0,0,796,607.1a24.45,24.45,0,0,0-8.63,9.52,31.5,31.5,0,0,0,0,27.46,24.83,24.83,0,0,0,8.63,9.65,22.54,22.54,0,0,0,12.6,3.56,23,23,0,0,0,12.6-3.49,24.6,24.6,0,0,0,8.63-9.52A29.53,29.53,0,0,0,833,630.45a29.88,29.88,0,0,0-3.15-14A24.06,24.06,0,0,0,821.2,607,23.33,23.33,0,0,0,808.6,603.61Z" transform="translate(-21 -370.08)"/><path class="cls-2" d="M897.76,594.15q9,0,14.31,3.91a21.27,21.27,0,0,1,7.53,10.41,43.72,43.72,0,0,1,2.26,14.45v37.53a5.53,5.53,0,0,1-1.57,4,5.47,5.47,0,0,1-7.81,0,5.53,5.53,0,0,1-1.57-4V622.92a27.59,27.59,0,0,0-1.51-9.38,14,14,0,0,0-5-6.72q-3.49-2.52-9.52-2.53a21.23,21.23,0,0,0-10.27,2.53,20.2,20.2,0,0,0-7.4,6.72,16.77,16.77,0,0,0-2.74,9.38v37.53a5.53,5.53,0,0,1-1.57,4,5.47,5.47,0,0,1-7.81,0,5.53,5.53,0,0,1-1.57-4V570.19a5.57,5.57,0,0,1,9.45-3.91,5.44,5.44,0,0,1,1.5,3.91v40.95l-2.73,3a20.31,20.31,0,0,1,3-7.19,27,27,0,0,1,5.89-6.5,29.67,29.67,0,0,1,7.94-4.59A25,25,0,0,1,897.76,594.15Z" transform="translate(-21 -370.08)"/><path class="cls-2" d="M939.39,595.66h32.19a4.79,4.79,0,0,1,3.63,1.51,5,5,0,0,1,1.44,3.56,4.92,4.92,0,0,1-5.07,5.07H939.39a4.86,4.86,0,0,1-3.56-1.51,5,5,0,0,1-1.5-3.7,4.65,4.65,0,0,1,1.5-3.49A5,5,0,0,1,939.39,595.66ZM953.77,577a5.09,5.09,0,0,1,3.84,1.58,5.44,5.44,0,0,1,1.51,3.9v66.16a10,10,0,0,0,1,4.93,5.08,5.08,0,0,0,2.54,2.26,8.4,8.4,0,0,0,3.08.61,5.65,5.65,0,0,0,2.4-.48,5.57,5.57,0,0,1,2.39-.48,3.39,3.39,0,0,1,2.54,1.31,4.84,4.84,0,0,1,1.16,3.35c0,1.64-1,3-2.87,4.18a12.38,12.38,0,0,1-6.44,1.71c-1.28,0-2.86-.09-4.73-.27A14.49,14.49,0,0,1,954.6,664a11.77,11.77,0,0,1-4.59-5c-1.23-2.33-1.85-5.59-1.85-9.8v-66.7a5.2,5.2,0,0,1,1.64-3.9A5.54,5.54,0,0,1,953.77,577Z" transform="translate(-21 -370.08)"/><circle class="cls-1" cx="1007.48" cy="273.31" r="27.76"/><path class="cls-3" d="M142.41,627.41a10.75,10.75,0,0,1-1.61-6.53c.14-2.48,1.54-4.59,4.23-6.34A9.06,9.06,0,0,1,151,613a9.73,9.73,0,0,1,5.93,3.12A44.9,44.9,0,0,0,169.46,626q6.94,3.63,16.8,3.63a40.65,40.65,0,0,0,8.24-1.31,16.12,16.12,0,0,0,7.24-4c2-1.95,3-4.8,3-8.55a10.5,10.5,0,0,0-3.22-8,24.54,24.54,0,0,0-8.44-4.93q-5.23-1.9-11.27-3.52-6.44-1.8-13-4a48.93,48.93,0,0,1-11.77-5.73,28,28,0,0,1-8.54-9.15q-3.33-5.62-3.32-13.88a25.67,25.67,0,0,1,5.33-16.29,35.62,35.62,0,0,1,13.88-10.66A45.11,45.11,0,0,1,183,535.7a53.55,53.55,0,0,1,12.27,1.51,51.22,51.22,0,0,1,12.47,4.72,35.63,35.63,0,0,1,10.46,8.45,11.57,11.57,0,0,1,2.31,6.24c.2,2.41-.9,4.56-3.32,6.43a8,8,0,0,1-5.83,1.81,8.83,8.83,0,0,1-5.63-2.21,25.88,25.88,0,0,0-9.86-7.54,33,33,0,0,0-13.67-2.72,30.56,30.56,0,0,0-8,1.11,15.17,15.17,0,0,0-6.94,3.92c-1.88,1.88-2.81,4.63-2.81,8.25a10.34,10.34,0,0,0,3.31,8,26.68,26.68,0,0,0,8.75,5,113.1,113.1,0,0,0,11.87,3.62q6.24,1.62,12.37,3.82a45.9,45.9,0,0,1,11.06,5.73,27.68,27.68,0,0,1,8,9.05q3.11,5.53,3.11,14a25.54,25.54,0,0,1-5.73,16.8,36.7,36.7,0,0,1-14.48,10.56,47.72,47.72,0,0,1-18.4,3.62,66.5,66.5,0,0,1-22.83-4.13A41.79,41.79,0,0,1,142.41,627.41Z" transform="translate(-21 -370.08)"/><path class="cls-3" d="M243.38,539.32h47.26a9.28,9.28,0,0,1,9.45,9.45,8.58,8.58,0,0,1-2.71,6.44,9.35,9.35,0,0,1-6.74,2.61H243.38a9.14,9.14,0,0,1-6.74-2.71,9.34,9.34,0,0,1,0-13.18A9.33,9.33,0,0,1,243.38,539.32Zm21.12-26.15a9.66,9.66,0,0,1,7.24,2.92,10.16,10.16,0,0,1,2.81,7.34v93.32a12.13,12.13,0,0,0,1.21,5.84,6.25,6.25,0,0,0,3.32,3,11.91,11.91,0,0,0,4.32.81,9,9,0,0,0,3.92-.81,9.75,9.75,0,0,1,4.13-.8,5.92,5.92,0,0,1,4.42,2.21,8.65,8.65,0,0,1,2,6q0,4.83-5.23,7.85a22.18,22.18,0,0,1-11.26,3,64,64,0,0,1-8.05-.61,25,25,0,0,1-8.95-3,18.33,18.33,0,0,1-7.14-7.75q-2.81-5.32-2.81-15V523.43a9.92,9.92,0,0,1,2.92-7.34A9.72,9.72,0,0,1,264.5,513.17Z" transform="translate(-21 -370.08)"/></svg>